<?xml version="1.0" encoding="UTF-8" standalone="no"?>
<svg
   width="16"
   height="16"
   fill="currentColor"
   class="bi bi-smartwatch"
   viewBox="0 0 16 16"
   version="1.1"
   id="svg22"
   sodipodi:docname="icon.svg"
   inkscape:version="1.2.2 (732a01da63, 2022-12-09, custom)"
   xmlns:inkscape="http://www.inkscape.org/namespaces/inkscape"
   xmlns:sodipodi="http://sodipodi.sourceforge.net/DTD/sodipodi-0.dtd"
   xmlns:xlink="http://www.w3.org/1999/xlink"
   xmlns="http://www.w3.org/2000/svg"
   xmlns:svg="http://www.w3.org/2000/svg">
  <defs
     id="defs26">
    <linearGradient
       inkscape:collect="always"
       id="linearGradient3073">
      <stop
         style="stop-color:#ffffff;stop-opacity:0;"
         offset="0"
         id="stop3069" />
      <stop
         style="stop-color:#ffffff;stop-opacity:1;"
         offset="1"
         id="stop3071" />
    </linearGradient>
    <linearGradient
       inkscape:collect="always"
       id="linearGradient250">
      <stop
         style="stop-color:#e9ae87;stop-opacity:1;"
         offset="0"
         id="stop246" />
      <stop
         style="stop-color:#da7935;stop-opacity:1;"
         offset="1"
         id="stop248" />
    </linearGradient>
    <radialGradient
       inkscape:collect="always"
       xlink:href="#linearGradient250"
       id="radialGradient252"
       cx="8.9274635"
       cy="4.4885468"
       fx="8.9274635"
       fy="4.4885468"
       r="6.5"
       gradientTransform="matrix(0.01520485,2.0958983,-1.2307368,0.00893004,11.024829,-16.213905)"
       gradientUnits="userSpaceOnUse" />
    <radialGradient
       inkscape:collect="always"
       xlink:href="#linearGradient3073"
       id="radialGradient3079"
       cx="7.9713645"
       cy="8.0085783"
       fx="7.9713645"
       fy="8.0085783"
       r="5.1234803"
       gradientTransform="matrix(-0.02342808,-1.3696967,2.9818546,-0.05100336,-15.722297,19.335395)"
       gradientUnits="userSpaceOnUse" />
  </defs>
  <sodipodi:namedview
     id="namedview24"
     pagecolor="#ffffff"
     bordercolor="#000000"
     borderopacity="0.25"
     inkscape:showpageshadow="2"
     inkscape:pageopacity="0.0"
     inkscape:pagecheckerboard="0"
     inkscape:deskcolor="#d1d1d1"
     showgrid="false"
     inkscape:zoom="34.391596"
     inkscape:cx="6.6149881"
     inkscape:cy="7.5309096"
     inkscape:window-width="2010"
     inkscape:window-height="1483"
     inkscape:window-x="2560"
     inkscape:window-y="32"
     inkscape:window-maximized="0"
     inkscape:current-layer="svg22" />
  <rect
     style="fill:#cccccc;fill-opacity:1"
     id="rect2794"
     width="10.246961"
     height="10.370316"
     x="2.8478844"
     y="2.8234205" />
  <rect
     style="display:inline;fill:url(#radialGradient3079);fill-opacity:1;opacity:0.31856206"
     id="rect3066"
     width="10.246961"
     height="10.370316"
     x="2.8478844"
     y="2.8234205" />
  <path
     d="M 4,1.667 V 2.05 A 2.5,2.5 0 0 0 2,4.5 v 7 a 2.5,2.5 0 0 0 2,2.45 v 0.383 C 4,15.253 4.746,16 5.667,16 h 4.666 C 11.253,16 12,15.254 12,14.333 V 13.95 A 2.5,2.5 0 0 0 14,11.5 V 8 h 0.5 A 0.5,0.5 0 0 0 15,7.5 v -2 A 0.5,0.5 0 0 0 14.5,5 H 14 V 4.5 A 2.5,2.5 0 0 0 12,2.05 V 1.667 C 12,0.747 11.254,0 10.333,0 H 5.667 C 4.747,0 4,0.746 4,1.667 Z M 4.5,3 h 7 A 1.5,1.5 0 0 1 13,4.5 v 7 A 1.5,1.5 0 0 1 11.5,13 h -7 A 1.5,1.5 0 0 1 3,11.5 v -7 A 1.5,1.5 0 0 1 4.5,3 Z"
     id="path20"
     style="fill:url(#radialGradient252);fill-opacity:1" />
  <text
     xml:space="preserve"
     style="font-style:normal;font-variant:normal;font-weight:300;font-stretch:normal;font-size:2.86664px;line-height:2.86357px;font-family:'Sono Monospace';-inkscape-font-specification:'Sono Monospace Light';text-align:center;text-anchor:middle;fill:#ffffff;stroke-width:0.389018"
     x="8.0416822"
     y="6.8315969"
     id="text2851"><tspan
       sodipodi:role="line"
       x="8.0416822"
       y="6.8315969"
       style="font-style:normal;font-variant:normal;font-weight:200;font-stretch:normal;font-size:2.86664px;font-family:Sono;-inkscape-font-specification:'Sono Ultra-Light';fill:#ffffff;stroke-width:0.389018"
       id="tspan3298">|||||</tspan></text>
  <text
     xml:space="preserve"
     style="font-style:normal;font-variant:normal;font-weight:300;font-stretch:normal;font-size:1.09603px;line-height:1.09486px;font-family:'Sono Monospace';-inkscape-font-specification:'Sono Monospace Light';text-align:center;text-anchor:middle;fill:#ffffff;stroke-width:0.148737"
     x="8.0598955"
     y="9.4378653"
     id="text3306"><tspan
       sodipodi:role="line"
       x="8.0598955"
       y="9.4378653"
       style="font-style:normal;font-variant:normal;font-weight:200;font-stretch:normal;font-size:1.09603px;font-family:Sono;-inkscape-font-specification:'Sono Ultra-Light';fill:#ffffff;stroke-width:0.148737"
       id="tspan3312">abcdefghij</tspan><tspan
       sodipodi:role="line"
       x="8.0598955"
       y="10.532725"
       style="font-style:normal;font-variant:normal;font-weight:200;font-stretch:normal;font-size:1.09603px;font-family:Sono;-inkscape-font-specification:'Sono Ultra-Light';fill:#ffffff;stroke-width:0.148737"
       id="tspan3314">klmnopqrstu</tspan><tspan
       sodipodi:role="line"
       x="8.0598955"
       y="11.627585"
       style="font-style:normal;font-variant:normal;font-weight:200;font-stretch:normal;font-size:1.09603px;font-family:Sono;-inkscape-font-specification:'Sono Ultra-Light';fill:#ffffff;stroke-width:0.148737"
       id="tspan3316">vwxyz</tspan></text>
</svg>
